<?xml version="1.0" encoding="utf-8"?>
<!-- Generator: Adobe Illustrator 22.1.0, SVG Export Plug-In . SVG Version: 6.00 Build 0)  -->
<svg version="1.1" id="Ebene_1" xmlns="http://www.w3.org/2000/svg" xmlns:xlink="http://www.w3.org/1999/xlink" x="0px" y="0px"
	 viewBox="0 0 493 161" style="enable-background:new 0 0 493 161;" xml:space="preserve">
<style type="text/css">
	.st0{fill:#FFFFFF;}
	.st1{fill:none;}
	.st2{font-family:'Roboto-Medium';}
	.st3{font-size:132.9648px;}
</style>
<title>Ghost Logo</title>
<g>
	<g>
		<path class="st0" d="M89.4,115.3c-4.8,4.8-10.2,8.7-15.9,11.6c6.9-13.2,8.7-28.4,5.7-42.6C77,74.2,72.2,64.4,65,56.2
			c-0.9-1-1.8-2.1-2.7-3c-0.9-0.9-1.9-1.8-2.9-2.7l0,0C42.3,36.3,17.1,37,0.9,52.3c8.7-8.4,19.3-13.8,30.4-16.2
			c14.3-3.1,29.4-1.2,42.5,5.7c5.6,2.9,10.9,6.8,15.6,11.4c8.9,8.9,14.6,19.8,17.1,31.3C103.9,95.8,98.2,106.5,89.4,115.3z"/>
	</g>
	<g>
		<path class="st0" d="M73.5,127c-13.3,6.8-28.4,8.6-42.6,5.4c11.1-2.4,21.7-7.9,30.5-16.3c0.3-0.3,0.5-0.5,0.8-0.8
			c0.3-0.3,0.5-0.5,0.8-0.8c8.3-8.7,13.7-19.1,16.2-30.1C82.2,98.6,80.3,113.7,73.5,127z"/>
	</g>
	<g>
		<path class="st0" d="M134.4,115.3c-4.8,4.8-10.2,8.7-15.9,11.6c6.9-13.2,8.7-28.4,5.7-42.6c-2.2-10.2-7-19.9-14.2-28.2
			c-0.9-1-1.8-2.1-2.7-3c-0.9-0.9-1.9-1.8-2.9-2.7l0,0c-17-14.2-42.2-13.5-58.5,1.8c8.7-8.4,19.3-13.8,30.4-16.2
			c14.3-3.1,29.4-1.2,42.5,5.7c5.6,2.9,10.9,6.8,15.6,11.4c8.9,8.9,14.6,19.8,17.1,31.3C149,95.8,143.3,106.5,134.4,115.3z"/>
	</g>
	<g>
		<path class="st0" d="M118.5,127c-13.3,6.8-28.4,8.6-42.6,5.4c11.1-2.4,21.7-7.9,30.5-16.3c0.3-0.3,0.5-0.5,0.8-0.8
			c0.3-0.3,0.5-0.5,0.8-0.8c8.3-8.7,13.7-19.1,16.2-30.1C127.3,98.6,125.4,113.7,118.5,127z"/>
	</g>
</g>
<rect x="161.5" y="20.8" class="st1" width="331.5" height="127"/>
<text transform="matrix(1 0 0 1 164.5 131.1461)" class="st0 st2 st3">Faast</text>
</svg>
